<svg width="30" height="30" viewBox="0 0 30 30" fill="none" xmlns="http://www.w3.org/2000/svg">
<g clip-path="url(#clip0_249_1204)">
<path d="M29.9605 29.3891L25.6375 18.9239C25.5695 18.7593 25.41 18.6522 25.2331 18.6522H4.76503C4.58813 18.6522 4.42858 18.7594 4.36067 18.9239L0.0375672 29.3891C-0.0187414 29.5253 -0.00374137 29.6809 0.0775868 29.8035C0.158856 29.9263 0.295556 30 0.441981 30H29.5562C29.7025 30 29.8393 29.9262 29.9206 29.8035C30.0018 29.6809 30.0168 29.5253 29.9605 29.3891Z" fill="#A8EEFC"/>
<path d="M28.1622 30H29.5568C29.7031 30 29.8399 29.9262 29.9212 29.8035C30.0024 29.6809 30.0174 29.5253 29.9612 29.3891L25.6381 18.9239C25.5702 18.7593 25.4107 18.6522 25.2338 18.6522H23.4746L28.1622 30Z" fill="#7EE5F2"/>
<path d="M7.21764 22.5991L8.70937 18.6424H4.73912C4.56223 18.6424 4.40268 18.7496 4.33477 18.9141L2.8125 22.5991H7.21764Z" fill="#4CE166"/>
<path d="M25.2076 18.6424H11.4219L15.4428 22.1486H26.9481L25.612 18.9141C25.544 18.7496 25.3845 18.6424 25.2076 18.6424Z" fill="#4CE166"/>
<path d="M27.0508 22.3986L27.1336 22.5991L27.0508 22.3986Z" fill="#4CE166"/>
<path d="M28.2759 25.3669L26.9465 22.1486H15.4411L11.4203 18.6424H8.72295H8.37971L6.92424 22.1477H2.99781L2.11586 24.2826L1.66797 25.3669H5.59855L3.68881 29.9902H7.2618L10.3292 22.48L19.1748 29.9902H24.3972L19.1106 25.3669H28.2759Z" fill="#FFDB56"/>
<path d="M14.9725 0C9.75578 0 5.51172 4.276 5.51172 9.53191C5.51172 11.3439 6.00109 13.2663 6.96643 15.2457C7.73025 16.8121 8.79309 18.4192 10.1252 20.0222C12.3853 22.7419 14.6107 24.4879 14.7044 24.561C14.7834 24.6226 14.8779 24.6532 14.9725 24.6532C15.0671 24.6532 15.1616 24.6224 15.2406 24.561C15.3342 24.4879 17.5596 22.7419 19.8198 20.0222C21.152 18.4192 22.2148 16.8121 22.9786 15.2457C23.9439 13.2662 24.4333 11.3439 24.4333 9.53191C24.4333 4.276 20.1892 0 14.9725 0ZM14.9725 5.90613C16.96 5.90613 18.5712 7.52947 18.5712 9.53191C18.5712 11.5344 16.96 13.1577 14.9725 13.1577C12.985 13.1577 11.3738 11.5344 11.3738 9.53191C11.3738 7.52947 12.985 5.90613 14.9725 5.90613Z" fill="#FF4A4A"/>
<path d="M14.9716 0C14.6603 0 14.3525 0.0157031 14.0488 0.0454102C18.8341 0.514277 22.5868 4.58965 22.5868 9.53191C22.5868 11.3439 22.0974 13.2663 21.1321 15.2457C20.3683 16.8121 19.3054 18.4192 17.9733 20.0222C16.4233 21.8875 14.8898 23.2945 14.0488 24.0182C14.4341 24.3497 14.6741 24.538 14.7035 24.5609C14.7825 24.6225 14.877 24.6531 14.9716 24.6531C15.0661 24.6531 15.1607 24.6224 15.2396 24.5609C15.3333 24.4879 17.5587 22.7418 19.8188 20.0222C21.151 18.4191 22.2139 16.8121 22.9776 15.2456C23.943 13.2662 24.4323 11.3438 24.4323 9.53186C24.4324 4.276 20.1883 0 14.9716 0Z" fill="#E7343F"/>
<path d="M7.26172 29.9902H19.1748L10.3291 22.4799L7.26172 29.9902Z" fill="#4CE166"/>
<path d="M24.8965 22.1486L26.2259 25.3669H28.2772L26.9478 22.1486H24.8965Z" fill="#FFBB24"/>
<path d="M24.8956 22.1486H26.9469L25.6108 18.9141C25.5428 18.7496 25.3833 18.6424 25.2064 18.6424H23.4473L24.8956 22.1486Z" fill="#44C868"/>
</g>
<defs>
<clipPath id="clip0_249_1204">
<rect width="30" height="30" fill="white"/>
</clipPath>
</defs>
</svg>
